# xmcd
#
# Track frame offsets:
# 225
# 27652
# 64705
# 97117
# 148207
# 163245
# 202587
# 223850
#
# Disc length: 4457 seconds
#
#
# Revision: 6
# Processed by: cddbd v1.5.2PL0 Copyright (c) Steve Scherf et al.
# Submitted via: FreeRIP 2.951 
#
DISCID=7c116608
DTITLE=Grateful Dead - Left In The Vaults Vol. 2
DYEAR=1984
DGENRE=Rock
TTITLE0=Hell In A Bucket
TTITLE1=They Love Each Other
TTITLE2=C.C. Ryder
TTITLE3=Birdsong
TTITLE4=medley: Biodtl/Duprees
TTITLE5=Looks Like Rain
TTITLE6=Might As Well
TTITLE7=medley: Scarlet Begonias/Fire On The Mountain
EXTD=Live at Kingswood Music Theatre, Ontario,\n Canada, June 21st, 1984.
EXTT0=
EXTT1=
EXTT2=
EXTT3=
EXTT4=
EXTT5=
EXTT6=
EXTT7=
PLAYORDER=
